<?xml version="1.0" encoding="utf-8"?>
<!-- Generator: Adobe Illustrator 28.0.0, SVG Export Plug-In . SVG Version: 6.00 Build 0)  -->
<svg version="1.0" id="katman_1" xmlns="http://www.w3.org/2000/svg" xmlns:xlink="http://www.w3.org/1999/xlink" x="0px" y="0px"
	 viewBox="0 0 613.54 626.04" style="enable-background:new 0 0 613.54 626.04;" xml:space="preserve">
<style type="text/css">
	.st0{fill:#121212;}
	.st1{fill:#505050;}
</style>
<path class="st0" d="M364.68,87.21c7.61,8.25,15.64,15.9,24.1,22.93c4.77,3.98,10.14,7.94,16.09,11.87
	c24.93,16.48,52.56,29.76,76.86,46c40.83,27.29,78.8,62.7,98.44,108.71c3.26,7.63,6.39,16.3,9.4,25.99
	c6.67,21.54,12.47,43.33,13.91,65.16c0.07,1.05,0.06,4.6-0.01,10.66c-0.05,3.91,0.29,7.76,1.02,11.54
	c-23.3,109.44-107.04,194.16-213.78,224.51C335.09,630.4,273.6,630,218.47,612.35c-16.82-5.39-33.07-12.2-48.75-20.44
	c-4.89-2.57-9.78-5.14-14.68-7.71c-1.2-0.63-2.2-1.38-3-2.24c-0.27-0.29-0.06-0.76,0.33-0.75c5.19,0.1,10.04-0.5,15.14-0.99
	c49.53-4.79,98.47-21.43,140.02-49.01c25.17-16.71,46.55-38.01,54.97-68.03c12.57-44.75-13.45-82.4-48.68-106.51
	c-16.89-11.56-31.99-20.97-47.49-31.29c-41.35-27.55-72.66-69.17-77.32-119.93c-4.98-54.19,15.71-104.99,57.62-139.4
	c18.18-14.93,39.89-26.98,60.98-37.2c1.29-0.63,2.32-1.21,3.08-1.75c0.84-0.6,0.74-0.9-0.29-0.9c-2.4-0.01-5.16,0.68-7.11,1.01
	c-49.9,8.48-94,39.79-122.26,81.17c-22.89,33.52-32.48,70.71-28.75,111.57c4.27,46.75,31.33,88.8,69.35,115.41
	c37.33,26.12,84.72,40.68,106.17,85.04c11.61,24.01,7.08,50.45-11.56,69.24c-2.69,2.71-5.43,5.37-8.22,7.98
	c-0.22,0.21-0.59,0.12-0.69-0.16c-11.09-29.97-36.62-47.86-63.51-62.09c-20.27-10.73-40.5-21.53-60.69-32.4
	c-17.55-9.45-35.28-19.73-50.47-33.32C93.85,334.9,76.78,285.44,82.6,233.71c8.51-75.68,55.1-136.53,113.97-181.17
	c0.26-0.19,0.19-0.59-0.12-0.69c-0.21-0.07-0.51-0.02-0.9,0.15c-3.98,1.69-7.95,3.4-11.92,5.13c-19.31,8.39-36.87,19.56-52.66,33.5
	c-37.87,33.4-66.81,76.6-78.15,125.82c-3.88,16.85-5.46,34.93-4.73,54.24c2.22,59.17,31.99,112.32,80.6,145.62
	c9.92,6.79,21.34,13.73,34.25,20.82c24.67,13.53,49.49,26.76,74.47,39.7c17,8.8,34.49,20.45,45.8,36.25
	c0.18,0.25,0.11,0.61-0.16,0.77c-10.39,6.34-21.53,12.55-32.92,16.99c-8.51-5.45-14.88-9.15-19.13-11.11
	C164.34,489,91.25,460.28,52.89,393.85c-14.45-25.03-24.33-51.96-29.63-80.78c-3.91-21.27-6.09-42.65-4.97-64.12
	c0.49-9.31,1.37-19.52,2.63-30.64c0.9-7.85,3.72-15.94,3.96-23.96c0.05-1.58,0.17-3.16,0.36-4.73
	c22.12-52.11,56.8-94.36,101.8-127.94c42.69-31.86,90.3-51.52,142.84-58.97c66.39-9.42,135.31,6.21,193.3,39.08
	c0.23,0.13,0.37,0.3,0.41,0.51c0.03,0.15-0.09,0.29-0.24,0.28c-17.09-1.05-34.01-0.02-50.77,3.07
	c-38.17,7.05-73.1,20.66-104.94,43.14c-26.54,18.74-49.71,45.33-56.23,77.18c-10.07,49.26,18.63,87.71,58.32,112.73
	c12.79,8.07,25.62,16.09,38.47,24.08c5.77,3.59,13.2,9.07,22.29,16.45c41.7,33.89,65.27,85.98,55.82,139.85
	c-5.81,33.08-20.41,61.44-43.8,85.09c-22.66,22.91-54.29,41.14-84.39,53.4c-1.2,0.49-1.15,0.7,0.14,0.65
	c27.99-1.11,54.67-10.71,78.21-25.6c47.79-30.22,82.74-78.76,88.3-135.67c5.59-57.21-22.95-111.39-70.39-142.85
	c-21.54-14.28-44.63-25.97-65.94-40.57c-23.98-16.42-47.08-42.92-48.24-73.52c-0.81-21.63,9.11-40.3,25.21-54.64
	c0.24-0.21,0.62-0.08,0.68,0.23c6.72,34.46,38.39,56.66,66.99,72.31c24.69,13.51,43.92,24.11,57.7,31.8
	c29.9,16.68,58.26,34.94,78.01,63.73c18.67,27.21,27.88,57.47,27.65,90.77c-0.5,71.84-53.5,137.92-106.99,180.4
	c-4.63,3.67-9.1,6.88-13.42,9.62c-1.59,1.01-1.48,1.25,0.33,0.71c11.56-3.43,22.77-8.22,33.62-14.36
	c36.87-20.84,66.16-49.04,87.88-84.61c14.89-24.37,24.99-53.14,28.07-81.86c7.75-72.4-27.09-136.82-87.37-176.42
	c-8.09-5.31-16.31-10.39-24.67-15.26c-23.07-13.43-46.06-26.97-68.99-40.62c-22.73-13.54-43.91-30.4-57.59-53.49
	c-0.24-0.39-0.13-0.91,0.25-1.17c8.65-6.05,17.83-11.32,27.55-15.83C359.83,89.13,363.02,87.76,364.68,87.21z"/>
<path class="st0" d="M525.61,160.43c-1.13-1.19-2.39-2.29-3.77-3.3c-19.24-14.13-39.41-26.78-60.52-37.93
	c-18.29-9.65-32.24-17.37-41.86-23.15c-5.43-3.26-13.98-9.01-25.65-17.25c34.77-8.12,69.66-5.13,101.75,10.34
	c25.63,12.36,47.14,30.26,64.2,52.9c19.39,25.76,33.07,54.43,41.02,86c0.07,0.26,0.05,0.52-0.04,0.79
	c-0.04,0.12-0.19,0.14-0.26,0.04c-13.79-19.11-31.13-37.22-49.6-51.01C544.35,172.99,535.93,167.18,525.61,160.43z"/>
<path class="st1" d="M393.81,78.8c11.67,8.24,20.22,13.99,25.65,17.25c9.62,5.78,23.57,13.5,41.86,23.15
	c21.11,11.15,41.28,23.8,60.52,37.93c1.38,1.01,2.64,2.11,3.77,3.3c-0.67-0.17-0.63,0.11,0.11,0.84
	c20.73,20.48,40.95,40.4,58.23,64.02c14.65,20.02,24.41,41.53,27.56,66.29c4.21,33.07,1.87,65.9-7.02,98.49
	c-0.73-3.78-1.07-7.63-1.02-11.54c0.07-6.06,0.08-9.61,0.01-10.66c-1.44-21.83-7.24-43.62-13.91-65.16
	c-3.01-9.69-6.14-18.36-9.4-25.99c-19.64-46.01-57.61-81.42-98.44-108.71c-24.3-16.24-51.93-29.52-76.86-46
	c-5.95-3.93-11.32-7.89-16.09-11.87c-8.46-7.03-16.49-14.68-24.1-22.93C374.9,83.55,384.61,80.75,393.81,78.8z"/>
<path class="st1" d="M25.24,189.62c-0.19,1.57-0.31,3.15-0.36,4.73c-0.24,8.02-3.06,16.11-3.96,23.96
	c-1.26,11.12-2.14,21.33-2.63,30.64c-1.12,21.47,1.06,42.85,4.97,64.12c5.3,28.82,15.18,55.75,29.63,80.78
	C91.25,460.28,164.34,489,231,519.73c4.25,1.96,10.62,5.66,19.13,11.11l-22.48,8.18c-0.79-0.4-1.75-0.66-2.89-0.78
	c-1.21-0.13-2.17-0.32-2.88-0.57c-17.43-6.17-34.47-13.56-51.43-20.9c-23.18-10.03-45.63-21.48-67.35-34.36
	c-5.93-3.52-12.94-8.58-21.01-15.19c-18.95-17.57-37.79-37.89-52.58-59.69C0.9,365.36-4.73,314.55,3.38,265.2
	c4.05-24.61,10.16-48.21,19.86-71.24C23.86,192.49,24.53,191.04,25.24,189.62z"/>
<path class="st0" d="M82.09,467.22c8.07,6.61,15.08,11.67,21.01,15.19c21.72,12.88,44.17,24.33,67.35,34.36
	c16.96,7.34,34,14.73,51.43,20.9c0.71,0.25,1.67,0.44,2.88,0.57c1.14,0.12,2.1,0.38,2.89,0.78
	c-53.05,16.16-109.54,5.78-151.53-30.39c-10.08-8.68-19.35-18.84-27.8-30.49c-17.35-23.9-29.39-49.82-36.13-77.75
	c-0.42-1.75-0.15-1.87,0.81-0.34C30.63,428.17,54.13,449.31,82.09,467.22z"/>
</svg>
